<svg xmlns="http://www.w3.org/2000/svg" version="1.1" xmlns:xlink="http://www.w3.org/1999/xlink" xmlns:svgjs="http://svgjs.dev/svgjs" viewBox="0 0 640 800"><g stroke-width="4" stroke="hsl(190, 100%, 70%)" fill="none" stroke-linecap="round"><line x1="0" y1="0" x2="56" y2="56" opacity="0.05"></line><line x1="56" y1="0" x2="112" y2="56" opacity="0.05"></line><line x1="112" y1="0" x2="168" y2="56" opacity="0.05"></line><line x1="168" y1="0" x2="224" y2="56" opacity="0.05"></line><line x1="280" y1="0" x2="224" y2="56" opacity="0.05"></line><line x1="280" y1="0" x2="336" y2="56" opacity="0.05"></line><line x1="336" y1="0" x2="392" y2="56" opacity="0.05"></line><line x1="448" y1="0" x2="392" y2="56" opacity="0.05"></line><line x1="448" y1="0" x2="504" y2="56" opacity="0.05"></line><line x1="560" y1="0" x2="504" y2="56" opacity="0.05"></line><line x1="560" y1="0" x2="616" y2="56" opacity="0.05"></line><line x1="616" y1="0" x2="672" y2="56" opacity="0.05"></line><line x1="0" y1="56" x2="56" y2="112" opacity="0.12"></line><line x1="56" y1="56" x2="112" y2="112" opacity="0.12"></line><line x1="112" y1="56" x2="168" y2="112" opacity="0.12"></line><line x1="168" y1="56" x2="224" y2="112" opacity="0.12"></line><line x1="224" y1="56" x2="280" y2="112" opacity="0.12"></line><line x1="280" y1="56" x2="336" y2="112" opacity="0.12"></line><line x1="336" y1="56" x2="392" y2="112" opacity="0.12"></line><line x1="448" y1="56" x2="392" y2="112" opacity="0.12"></line><line x1="448" y1="56" x2="504" y2="112" opacity="0.12"></line><line x1="560" y1="56" x2="504" y2="112" opacity="0.12"></line><line x1="560" y1="56" x2="616" y2="112" opacity="0.12"></line><line x1="616" y1="56" x2="672" y2="112" opacity="0.12"></line><line x1="0" y1="112" x2="56" y2="168" opacity="0.18"></line><line x1="112" y1="112" x2="56" y2="168" opacity="0.18"></line><line x1="112" y1="112" x2="168" y2="168" opacity="0.18"></line><line x1="224" y1="112" x2="168" y2="168" opacity="0.18"></line><line x1="224" y1="112" x2="280" y2="168" opacity="0.18"></line><line x1="336" y1="112" x2="280" y2="168" opacity="0.18"></line><line x1="392" y1="112" x2="336" y2="168" opacity="0.18"></line><line x1="392" y1="112" x2="448" y2="168" opacity="0.18"></line><line x1="448" y1="112" x2="504" y2="168" opacity="0.18"></line><line x1="560" y1="112" x2="504" y2="168" opacity="0.18"></line><line x1="616" y1="112" x2="560" y2="168" opacity="0.18"></line><line x1="672" y1="112" x2="616" y2="168" opacity="0.18"></line><line x1="0" y1="168" x2="56" y2="224" opacity="0.25"></line><line x1="56" y1="168" x2="112" y2="224" opacity="0.25"></line><line x1="112" y1="168" x2="168" y2="224" opacity="0.25"></line><line x1="168" y1="168" x2="224" y2="224" opacity="0.25"></line><line x1="280" y1="168" x2="224" y2="224" opacity="0.25"></line><line x1="280" y1="168" x2="336" y2="224" opacity="0.25"></line><line x1="336" y1="168" x2="392" y2="224" opacity="0.25"></line><line x1="392" y1="168" x2="448" y2="224" opacity="0.25"></line><line x1="448" y1="168" x2="504" y2="224" opacity="0.25"></line><line x1="504" y1="168" x2="560" y2="224" opacity="0.25"></line><line x1="560" y1="168" x2="616" y2="224" opacity="0.25"></line><line x1="672" y1="168" x2="616" y2="224" opacity="0.25"></line><line x1="0" y1="224" x2="56" y2="280" opacity="0.32"></line><line x1="112" y1="224" x2="56" y2="280" opacity="0.32"></line><line x1="168" y1="224" x2="112" y2="280" opacity="0.32"></line><line x1="168" y1="224" x2="224" y2="280" opacity="0.32"></line><line x1="224" y1="224" x2="280" y2="280" opacity="0.32"></line><line x1="280" y1="224" x2="336" y2="280" opacity="0.32"></line><line x1="336" y1="224" x2="392" y2="280" opacity="0.32"></line><line x1="392" y1="224" x2="448" y2="280" opacity="0.32"></line><line x1="448" y1="224" x2="504" y2="280" opacity="0.32"></line><line x1="504" y1="224" x2="560" y2="280" opacity="0.32"></line><line x1="560" y1="224" x2="616" y2="280" opacity="0.32"></line><line x1="616" y1="224" x2="672" y2="280" opacity="0.32"></line><line x1="0" y1="280" x2="56" y2="336" opacity="0.38"></line><line x1="112" y1="280" x2="56" y2="336" opacity="0.38"></line><line x1="112" y1="280" x2="168" y2="336" opacity="0.38"></line><line x1="168" y1="280" x2="224" y2="336" opacity="0.38"></line><line x1="224" y1="280" x2="280" y2="336" opacity="0.38"></line><line x1="336" y1="280" x2="280" y2="336" opacity="0.38"></line><line x1="392" y1="280" x2="336" y2="336" opacity="0.38"></line><line x1="448" y1="280" x2="392" y2="336" opacity="0.38"></line><line x1="504" y1="280" x2="448" y2="336" opacity="0.38"></line><line x1="560" y1="280" x2="504" y2="336" opacity="0.38"></line><line x1="616" y1="280" x2="560" y2="336" opacity="0.38"></line><line x1="616" y1="280" x2="672" y2="336" opacity="0.38"></line><line x1="56" y1="336" x2="0" y2="392" opacity="0.45"></line><line x1="112" y1="336" x2="56" y2="392" opacity="0.45"></line><line x1="112" y1="336" x2="168" y2="392" opacity="0.45"></line><line x1="224" y1="336" x2="168" y2="392" opacity="0.45"></line><line x1="280" y1="336" x2="224" y2="392" opacity="0.45"></line><line x1="280" y1="336" x2="336" y2="392" opacity="0.45"></line><line x1="336" y1="336" x2="392" y2="392" opacity="0.45"></line><line x1="392" y1="336" x2="448" y2="392" opacity="0.45"></line><line x1="448" y1="336" x2="504" y2="392" opacity="0.45"></line><line x1="504" y1="336" x2="560" y2="392" opacity="0.45"></line><line x1="616" y1="336" x2="560" y2="392" opacity="0.45"></line><line x1="616" y1="336" x2="672" y2="392" opacity="0.45"></line><line x1="56" y1="392" x2="0" y2="448" opacity="0.52"></line><line x1="56" y1="392" x2="112" y2="448" opacity="0.52"></line><line x1="112" y1="392" x2="168" y2="448" opacity="0.52"></line><line x1="168" y1="392" x2="224" y2="448" opacity="0.52"></line><line x1="224" y1="392" x2="280" y2="448" opacity="0.52"></line><line x1="280" y1="392" x2="336" y2="448" opacity="0.52"></line><line x1="336" y1="392" x2="392" y2="448" opacity="0.52"></line><line x1="392" y1="392" x2="448" y2="448" opacity="0.52"></line><line x1="448" y1="392" x2="504" y2="448" opacity="0.52"></line><line x1="504" y1="392" x2="560" y2="448" opacity="0.52"></line><line x1="560" y1="392" x2="616" y2="448" opacity="0.52"></line><line x1="672" y1="392" x2="616" y2="448" opacity="0.52"></line><line x1="56" y1="448" x2="0" y2="504" opacity="0.58"></line><line x1="56" y1="448" x2="112" y2="504" opacity="0.58"></line><line x1="168" y1="448" x2="112" y2="504" opacity="0.58"></line><line x1="168" y1="448" x2="224" y2="504" opacity="0.58"></line><line x1="224" y1="448" x2="280" y2="504" opacity="0.58"></line><line x1="336" y1="448" x2="280" y2="504" opacity="0.58"></line><line x1="392" y1="448" x2="336" y2="504" opacity="0.58"></line><line x1="392" y1="448" x2="448" y2="504" opacity="0.58"></line><line x1="448" y1="448" x2="504" y2="504" opacity="0.58"></line><line x1="560" y1="448" x2="504" y2="504" opacity="0.58"></line><line x1="560" y1="448" x2="616" y2="504" opacity="0.58"></line><line x1="616" y1="448" x2="672" y2="504" opacity="0.58"></line><line x1="0" y1="504" x2="56" y2="560" opacity="0.65"></line><line x1="112" y1="504" x2="56" y2="560" opacity="0.65"></line><line x1="112" y1="504" x2="168" y2="560" opacity="0.65"></line><line x1="224" y1="504" x2="168" y2="560" opacity="0.65"></line><line x1="280" y1="504" x2="224" y2="560" opacity="0.65"></line><line x1="336" y1="504" x2="280" y2="560" opacity="0.65"></line><line x1="336" y1="504" x2="392" y2="560" opacity="0.65"></line><line x1="392" y1="504" x2="448" y2="560" opacity="0.65"></line><line x1="448" y1="504" x2="504" y2="560" opacity="0.65"></line><line x1="504" y1="504" x2="560" y2="560" opacity="0.65"></line><line x1="560" y1="504" x2="616" y2="560" opacity="0.65"></line><line x1="616" y1="504" x2="672" y2="560" opacity="0.65"></line><line x1="0" y1="560" x2="56" y2="616" opacity="0.71"></line><line x1="56" y1="560" x2="112" y2="616" opacity="0.71"></line><line x1="112" y1="560" x2="168" y2="616" opacity="0.71"></line><line x1="224" y1="560" x2="168" y2="616" opacity="0.71"></line><line x1="280" y1="560" x2="224" y2="616" opacity="0.71"></line><line x1="280" y1="560" x2="336" y2="616" opacity="0.71"></line><line x1="336" y1="560" x2="392" y2="616" opacity="0.71"></line><line x1="392" y1="560" x2="448" y2="616" opacity="0.71"></line><line x1="504" y1="560" x2="448" y2="616" opacity="0.71"></line><line x1="560" y1="560" x2="504" y2="616" opacity="0.71"></line><line x1="560" y1="560" x2="616" y2="616" opacity="0.71"></line><line x1="672" y1="560" x2="616" y2="616" opacity="0.71"></line><line x1="0" y1="616" x2="56" y2="672" opacity="0.78"></line><line x1="112" y1="616" x2="56" y2="672" opacity="0.78"></line><line x1="112" y1="616" x2="168" y2="672" opacity="0.78"></line><line x1="224" y1="616" x2="168" y2="672" opacity="0.78"></line><line x1="224" y1="616" x2="280" y2="672" opacity="0.78"></line><line x1="336" y1="616" x2="280" y2="672" opacity="0.78"></line><line x1="336" y1="616" x2="392" y2="672" opacity="0.78"></line><line x1="392" y1="616" x2="448" y2="672" opacity="0.78"></line><line x1="448" y1="616" x2="504" y2="672" opacity="0.78"></line><line x1="560" y1="616" x2="504" y2="672" opacity="0.78"></line><line x1="560" y1="616" x2="616" y2="672" opacity="0.78"></line><line x1="616" y1="616" x2="672" y2="672" opacity="0.78"></line><line x1="0" y1="672" x2="56" y2="728" opacity="0.85"></line><line x1="56" y1="672" x2="112" y2="728" opacity="0.85"></line><line x1="168" y1="672" x2="112" y2="728" opacity="0.85"></line><line x1="168" y1="672" x2="224" y2="728" opacity="0.85"></line><line x1="224" y1="672" x2="280" y2="728" opacity="0.85"></line><line x1="280" y1="672" x2="336" y2="728" opacity="0.85"></line><line x1="336" y1="672" x2="392" y2="728" opacity="0.85"></line><line x1="448" y1="672" x2="392" y2="728" opacity="0.85"></line><line x1="448" y1="672" x2="504" y2="728" opacity="0.85"></line><line x1="504" y1="672" x2="560" y2="728" opacity="0.85"></line><line x1="616" y1="672" x2="560" y2="728" opacity="0.85"></line><line x1="616" y1="672" x2="672" y2="728" opacity="0.85"></line><line x1="56" y1="728" x2="0" y2="784" opacity="0.91"></line><line x1="56" y1="728" x2="112" y2="784" opacity="0.91"></line><line x1="112" y1="728" x2="168" y2="784" opacity="0.91"></line><line x1="224" y1="728" x2="168" y2="784" opacity="0.91"></line><line x1="280" y1="728" x2="224" y2="784" opacity="0.91"></line><line x1="336" y1="728" x2="280" y2="784" opacity="0.91"></line><line x1="392" y1="728" x2="336" y2="784" opacity="0.91"></line><line x1="392" y1="728" x2="448" y2="784" opacity="0.91"></line><line x1="448" y1="728" x2="504" y2="784" opacity="0.91"></line><line x1="504" y1="728" x2="560" y2="784" opacity="0.91"></line><line x1="560" y1="728" x2="616" y2="784" opacity="0.91"></line><line x1="616" y1="728" x2="672" y2="784" opacity="0.91"></line><line x1="56" y1="784" x2="0" y2="840" opacity="0.98"></line><line x1="56" y1="784" x2="112" y2="840" opacity="0.98"></line><line x1="168" y1="784" x2="112" y2="840" opacity="0.98"></line><line x1="168" y1="784" x2="224" y2="840" opacity="0.98"></line><line x1="280" y1="784" x2="224" y2="840" opacity="0.98"></line><line x1="336" y1="784" x2="280" y2="840" opacity="0.98"></line><line x1="336" y1="784" x2="392" y2="840" opacity="0.98"></line><line x1="392" y1="784" x2="448" y2="840" opacity="0.98"></line><line x1="504" y1="784" x2="448" y2="840" opacity="0.98"></line><line x1="504" y1="784" x2="560" y2="840" opacity="0.98"></line><line x1="560" y1="784" x2="616" y2="840" opacity="0.98"></line><line x1="672" y1="784" x2="616" y2="840" opacity="0.98"></line></g></svg> 

