<svg xmlns="http://www.w3.org/2000/svg" version="1.1" xmlns:xlink="http://www.w3.org/1999/xlink" xmlns:svgjs="http://svgjs.dev/svgjs" viewBox="0 0 800 800"><rect width="100%" height="100%" fill="black" /><circle r="10.5" cx="330" cy="677" fill="hsl(292, 75%, 87%)" opacity="0.34"></circle><circle r="7" cx="457" cy="175" fill="hsl(222, 75%, 87%)" opacity="0.25"></circle><circle r="5.5" cx="556" cy="458" fill="hsl(115, 75%, 87%)" opacity="0.49"></circle><circle r="5" cx="536" cy="670" fill="hsl(144, 75%, 87%)" opacity="0.93"></circle><circle r="8.5" cx="473" cy="744" fill="hsl(217, 75%, 87%)" opacity="0.83"></circle><circle r="9" cx="14" cy="267" fill="hsl(249, 75%, 87%)" opacity="0.21"></circle><circle r="11" cx="372" cy="672" fill="hsl(283, 75%, 87%)" opacity="0.21"></circle><circle r="7" cx="532" cy="607" fill="hsl(144, 75%, 87%)" opacity="0.93"></circle><circle r="6.5" cx="706" cy="494" fill="hsl(104, 75%, 87%)" opacity="0.39"></circle><circle r="7" cx="442" cy="701" fill="hsl(240, 75%, 87%)" opacity="0.17"></circle><circle r="10.5" cx="284" cy="608" fill="hsl(287, 75%, 87%)" opacity="0.17"></circle><circle r="7.5" cx="535" cy="391" fill="hsl(144, 75%, 87%)" opacity="0.21"></circle><circle r="6" cx="599" cy="141" fill="hsl(79, 75%, 87%)" opacity="0.25"></circle><circle r="3.5" cx="641" cy="203" fill="hsl(66, 75%, 87%)" opacity="0.54"></circle><circle r="4.5" cx="191" cy="543" fill="hsl(246, 75%, 87%)" opacity="0.43"></circle><circle r="10.5" cx="414" cy="508" fill="hsl(258, 75%, 87%)" opacity="0.95"></circle><circle r="6.5" cx="690" cy="657" fill="hsl(92, 75%, 87%)" opacity="0.52"></circle><circle r="5.5" cx="248" cy="713" fill="hsl(272, 75%, 87%)" opacity="0.52"></circle><circle r="5.5" cx="597" cy="670" fill="hsl(81, 75%, 87%)" opacity="0.67"></circle><circle r="5.5" cx="587" cy="169" fill="hsl(88, 75%, 87%)" opacity="0.79"></circle><circle r="7" cx="428" cy="682" fill="hsl(250, 75%, 87%)" opacity="0.85"></circle><circle r="5" cx="649" cy="269" fill="hsl(66, 75%, 87%)" opacity="0.14"></circle><circle r="8" cx="381" cy="126" fill="hsl(217, 75%, 87%)" opacity="0.56"></circle><circle r="5" cx="130" cy="78" fill="hsl(147, 75%, 87%)" opacity="0.92"></circle><circle r="5.5" cx="774" cy="126" fill="hsl(184, 75%, 87%)" opacity="0.13"></circle><circle r="6" cx="444" cy="66" fill="hsl(99, 75%, 87%)" opacity="0.45"></circle><circle r="10" cx="329" cy="194" fill="hsl(292, 75%, 87%)" opacity="0.83"></circle><circle r="4.5" cx="748" cy="113" fill="hsl(156, 75%, 87%)" opacity="0.87"></circle><circle r="11" cx="341" cy="592" fill="hsl(290, 75%, 87%)" opacity="0.15"></circle><circle r="9.5" cx="351" cy="706" fill="hsl(287, 75%, 87%)" opacity="0.50"></circle><circle r="5.5" cx="724" cy="63" fill="hsl(144, 75%, 87%)" opacity="0.77"></circle><circle r="8" cx="181" cy="218" fill="hsl(241, 75%, 87%)" opacity="0.83"></circle><circle r="10" cx="431" cy="291" fill="hsl(250, 75%, 87%)" opacity="0.78"></circle><circle r="6.5" cx="155" cy="216" fill="hsl(232, 75%, 87%)" opacity="0.88"></circle><circle r="4.5" cx="539" cy="158" fill="hsl(116, 75%, 87%)" opacity="0.41"></circle><circle r="9" cx="122" cy="559" fill="hsl(228, 75%, 87%)" opacity="0.51"></circle><circle r="3.5" cx="542" cy="726" fill="hsl(129, 75%, 87%)" opacity="0.73"></circle><circle r="12" cx="275" cy="339" fill="hsl(287, 75%, 87%)" opacity="0.84"></circle><circle r="12.5" cx="313" cy="155" fill="hsl(270, 75%, 87%)" opacity="0.13"></circle><circle r="8.5" cx="342" cy="254" fill="hsl(290, 75%, 87%)" opacity="0.78"></circle><circle r="4.5" cx="757" cy="288" fill="hsl(167, 75%, 87%)" opacity="0.69"></circle><circle r="4" cx="218" cy="11" fill="hsl(88, 75%, 87%)" opacity="0.53"></circle><circle r="9" cx="534" cy="236" fill="hsl(144, 75%, 87%)" opacity="0.61"></circle><circle r="7" cx="33" cy="201" fill="hsl(246, 75%, 87%)" opacity="0.98"></circle><circle r="9" cx="443" cy="403" fill="hsl(240, 75%, 87%)" opacity="0.57"></circle><circle r="6" cx="595" cy="561" fill="hsl(81, 75%, 87%)" opacity="0.80"></circle><circle r="5" cx="695" cy="82" fill="hsl(120, 75%, 87%)" opacity="0.47"></circle><circle r="8.5" cx="296" cy="730" fill="hsl(290, 75%, 87%)" opacity="0.39"></circle><circle r="6.5" cx="575" cy="695" fill="hsl(102, 75%, 87%)" opacity="0.55"></circle><circle r="5.5" cx="466" cy="544" fill="hsl(217, 75%, 87%)" opacity="0.49"></circle><circle r="5" cx="575" cy="493" fill="hsl(102, 75%, 87%)" opacity="0.96"></circle><circle r="6" cx="419" cy="402" fill="hsl(258, 75%, 87%)" opacity="0.11"></circle><circle r="13.5" cx="81" cy="491" fill="hsl(232, 75%, 87%)" opacity="0.64"></circle><circle r="5.5" cx="251" cy="24" fill="hsl(110, 75%, 87%)" opacity="0.91"></circle><circle r="6" cx="736" cy="200" fill="hsl(134, 75%, 87%)" opacity="0.22"></circle><circle r="8" cx="231" cy="656" fill="hsl(266, 75%, 87%)" opacity="0.15"></circle><circle r="7" cx="715" cy="531" fill="hsl(118, 75%, 87%)" opacity="0.41"></circle><circle r="5.5" cx="562" cy="16" fill="hsl(85, 75%, 87%)" opacity="0.98"></circle><circle r="10.5" cx="103" cy="675" fill="hsl(228, 75%, 87%)" opacity="0.60"></circle><circle r="8" cx="95" cy="198" fill="hsl(230, 75%, 87%)" opacity="0.73"></circle><circle r="12" cx="314" cy="267" fill="hsl(292, 75%, 87%)" opacity="0.90"></circle><circle r="4.5" cx="677" cy="312" fill="hsl(82, 75%, 87%)" opacity="0.44"></circle><circle r="6" cx="331" cy="387" fill="hsl(292, 75%, 87%)" opacity="0.17"></circle><circle r="9.5" cx="466" cy="380" fill="hsl(217, 75%, 87%)" opacity="0.15"></circle><circle r="4" cx="154" cy="13" fill="hsl(75, 75%, 87%)" opacity="0.46"></circle><circle r="5" cx="7" cy="768" fill="hsl(252, 75%, 87%)" opacity="0.15"></circle><circle r="4.5" cx="611" cy="514" fill="hsl(73, 75%, 87%)" opacity="0.33"></circle><circle r="8" cx="317" cy="768" fill="hsl(292, 75%, 87%)" opacity="0.78"></circle><circle r="8" cx="253" cy="177" fill="hsl(274, 75%, 87%)" opacity="0.26"></circle><circle r="6.5" cx="397" cy="403" fill="hsl(272, 75%, 87%)" opacity="0.37"></circle><circle r="11" cx="343" cy="489" fill="hsl(290, 75%, 87%)" opacity="0.24"></circle><circle r="7" cx="409" cy="242" fill="hsl(266, 75%, 87%)" opacity="0.53"></circle><circle r="13.5" cx="21" cy="699" fill="hsl(249, 75%, 87%)" opacity="0.92"></circle><circle r="8.5" cx="272" cy="209" fill="hsl(283, 75%, 87%)" opacity="0.89"></circle><circle r="6" cx="349" cy="60" fill="hsl(131, 75%, 87%)" opacity="0.13"></circle><circle r="12.5" cx="227" cy="347" fill="hsl(266, 75%, 87%)" opacity="0.43"></circle><circle r="17.5" cx="26" cy="628" fill="hsl(246, 75%, 87%)" opacity="0.39"></circle><circle r="8" cx="62" cy="732" fill="hsl(239, 75%, 87%)" opacity="0.45"></circle><circle r="7.5" cx="528" cy="784" fill="hsl(144, 75%, 87%)" opacity="0.69"></circle><circle r="10" cx="299" cy="687" fill="hsl(290, 75%, 87%)" opacity="0.90"></circle><circle r="6.5" cx="182" cy="22" fill="hsl(80, 75%, 87%)" opacity="0.21"></circle><circle r="8.5" cx="300" cy="421" fill="hsl(290, 75%, 87%)" opacity="0.78"></circle><circle r="7" cx="486" cy="196" fill="hsl(203, 75%, 87%)" opacity="0.99"></circle><circle r="8" cx="399" cy="272" fill="hsl(272, 75%, 87%)" opacity="0.38"></circle><circle r="8.5" cx="403" cy="472" fill="hsl(266, 75%, 87%)" opacity="0.29"></circle><circle r="5" cx="601" cy="597" fill="hsl(73, 75%, 87%)" opacity="0.49"></circle><circle r="7.5" cx="37" cy="27" fill="hsl(180, 75%, 87%)" opacity="0.41"></circle><circle r="5" cx="410" cy="15" fill="hsl(75, 75%, 87%)" opacity="0.69"></circle><circle r="5.5" cx="674" cy="167" fill="hsl(78, 75%, 87%)" opacity="0.77"></circle><circle r="7" cx="691" cy="377" fill="hsl(92, 75%, 87%)" opacity="0.41"></circle><circle r="11" cx="274" cy="266" fill="hsl(283, 75%, 87%)" opacity="0.86"></circle><circle r="7.5" cx="124" cy="265" fill="hsl(228, 75%, 87%)" opacity="0.79"></circle><circle r="13" cx="390" cy="555" fill="hsl(272, 75%, 87%)" opacity="0.55"></circle><circle r="9.5" cx="153" cy="281" fill="hsl(232, 75%, 87%)" opacity="0.70"></circle><circle r="5.5" cx="742" cy="142" fill="hsl(153, 75%, 87%)" opacity="0.71"></circle><circle r="6.5" cx="466" cy="689" fill="hsl(217, 75%, 87%)" opacity="0.21"></circle><circle r="6.5" cx="664" cy="684" fill="hsl(74, 75%, 87%)" opacity="0.70"></circle><circle r="7" cx="90" cy="70" fill="hsl(155, 75%, 87%)" opacity="0.85"></circle><circle r="9.5" cx="404" cy="322" fill="hsl(266, 75%, 87%)" opacity="0.42"></circle><circle r="5" cx="577" cy="352" fill="hsl(90, 75%, 87%)" opacity="0.82"></circle><circle r="5.5" cx="665" cy="44" fill="hsl(119, 75%, 87%)" opacity="0.95"></circle><circle r="6" cx="207" cy="542" fill="hsl(253, 75%, 87%)" opacity="0.34"></circle><circle r="4" cx="658" cy="537" fill="hsl(69, 75%, 87%)" opacity="0.97"></circle><circle r="6.5" cx="149" cy="45" fill="hsl(100, 75%, 87%)" opacity="0.10"></circle><circle r="9" cx="158" cy="784" fill="hsl(232, 75%, 87%)" opacity="0.26"></circle><circle r="5.5" cx="342" cy="402" fill="hsl(290, 75%, 87%)" opacity="0.92"></circle><circle r="12" cx="64" cy="594" fill="hsl(235, 75%, 87%)" opacity="0.38"></circle></svg>