<svg xmlns="http://www.w3.org/2000/svg" version="1.1" xmlns:xlink="http://www.w3.org/1999/xlink" xmlns:svgjs="http://svgjs.dev/svgjs" viewBox="0 0 800 800"><circle r="11" cx="113" cy="245" fill="hsl(312, 75%, 70%)" opacity="0.72"></circle><circle r="15.5" cx="615" cy="662" fill="hsl(311, 75%, 70%)" opacity="0.90"></circle><circle r="13.5" cx="96" cy="533" fill="hsl(303, 75%, 70%)" opacity="0.31"></circle><circle r="12" cx="398" cy="18" fill="hsl(302, 75%, 70%)" opacity="0.75"></circle><circle r="11.5" cx="24" cy="351" fill="hsl(281, 75%, 70%)" opacity="0.25"></circle><circle r="13" cx="589" cy="704" fill="hsl(299, 75%, 70%)" opacity="0.22"></circle><circle r="15" cx="319" cy="231" fill="hsl(314, 75%, 70%)" opacity="0.81"></circle><circle r="12.5" cx="778" cy="156" fill="hsl(247, 75%, 70%)" opacity="0.91"></circle><circle r="11.5" cx="509" cy="451" fill="hsl(235, 75%, 70%)" opacity="0.54"></circle><circle r="13.5" cx="630" cy="176" fill="hsl(323, 75%, 70%)" opacity="0.31"></circle><circle r="9" cx="23" cy="519" fill="hsl(281, 75%, 70%)" opacity="0.32"></circle><circle r="14.5" cx="188" cy="503" fill="hsl(339, 75%, 70%)" opacity="0.16"></circle><circle r="13" cx="708" cy="731" fill="hsl(288, 75%, 70%)" opacity="0.30"></circle><circle r="14" cx="744" cy="83" fill="hsl(321, 75%, 70%)" opacity="0.98"></circle><circle r="14" cx="318" cy="654" fill="hsl(314, 75%, 70%)" opacity="0.92"></circle><circle r="14.5" cx="294" cy="356" fill="hsl(328, 75%, 70%)" opacity="0.18"></circle><circle r="13.5" cx="569" cy="390" fill="hsl(281, 75%, 70%)" opacity="0.66"></circle><circle r="12.5" cx="208" cy="89" fill="hsl(274, 75%, 70%)" opacity="0.74"></circle><circle r="13" cx="642" cy="304" fill="hsl(316, 75%, 70%)" opacity="0.28"></circle><circle r="14" cx="302" cy="143" fill="hsl(312, 75%, 70%)" opacity="0.74"></circle><circle r="13.5" cx="545" cy="267" fill="hsl(261, 75%, 70%)" opacity="0.78"></circle><circle r="14.5" cx="285" cy="257" fill="hsl(333, 75%, 70%)" opacity="0.63"></circle><circle r="13.5" cx="325" cy="746" fill="hsl(314, 75%, 70%)" opacity="0.26"></circle><circle r="12.5" cx="167" cy="130" fill="hsl(300, 75%, 70%)" opacity="0.85"></circle><circle r="13" cx="606" cy="20" fill="hsl(304, 75%, 70%)" opacity="0.85"></circle><circle r="13.5" cx="305" cy="417" fill="hsl(321, 75%, 70%)" opacity="0.20"></circle><circle r="11" cx="444" cy="371" fill="hsl(228, 75%, 70%)" opacity="0.63"></circle><circle r="13.5" cx="702" cy="418" fill="hsl(288, 75%, 70%)" opacity="0.89"></circle><circle r="14" cx="628" cy="545" fill="hsl(315, 75%, 70%)" opacity="0.34"></circle><circle r="11.5" cx="466" cy="113" fill="hsl(276, 75%, 70%)" opacity="0.87"></circle><circle r="13" cx="98" cy="412" fill="hsl(303, 75%, 70%)" opacity="0.96"></circle><circle r="15" cx="641" cy="778" fill="hsl(316, 75%, 70%)" opacity="0.84"></circle><circle r="12.5" cx="485" cy="346" fill="hsl(225, 75%, 70%)" opacity="0.98"></circle><circle r="9" cx="315" cy="14" fill="hsl(275, 75%, 70%)" opacity="0.99"></circle><circle r="13.5" cx="258" cy="114" fill="hsl(300, 75%, 70%)" opacity="0.38"></circle><circle r="14" cx="652" cy="686" fill="hsl(315, 75%, 70%)" opacity="0.21"></circle><circle r="12.5" cx="605" cy="315" fill="hsl(306, 75%, 70%)" opacity="0.84"></circle><circle r="13" cx="225" cy="344" fill="hsl(344, 75%, 70%)" opacity="0.28"></circle><circle r="11.5" cx="106" cy="114" fill="hsl(292, 75%, 70%)" opacity="0.49"></circle><circle r="12" cx="520" cy="168" fill="hsl(259, 75%, 70%)" opacity="0.89"></circle><circle r="13" cx="515" cy="721" fill="hsl(242, 75%, 70%)" opacity="0.11"></circle><circle r="12.5" cx="198" cy="365" fill="hsl(339, 75%, 70%)" opacity="0.92"></circle><circle r="12.5" cx="741" cy="778" fill="hsl(250, 75%, 70%)" opacity="0.30"></circle><circle r="17" cx="192" cy="694" fill="hsl(339, 75%, 70%)" opacity="0.16"></circle><circle r="13" cx="593" cy="276" fill="hsl(299, 75%, 70%)" opacity="0.87"></circle><circle r="14" cx="364" cy="449" fill="hsl(277, 75%, 70%)" opacity="0.43"></circle><circle r="13" cx="559" cy="739" fill="hsl(271, 75%, 70%)" opacity="0.26"></circle><circle r="13" cx="234" cy="184" fill="hsl(339, 75%, 70%)" opacity="0.18"></circle><circle r="14.5" cx="100" cy="577" fill="hsl(303, 75%, 70%)" opacity="0.76"></circle><circle r="13.5" cx="589" cy="473" fill="hsl(299, 75%, 70%)" opacity="0.51"></circle><circle r="10.5" cx="532" cy="120" fill="hsl(293, 75%, 70%)" opacity="0.96"></circle><circle r="12" cx="626" cy="225" fill="hsl(315, 75%, 70%)" opacity="0.97"></circle><circle r="12" cx="725" cy="294" fill="hsl(264, 75%, 70%)" opacity="0.40"></circle><circle r="11" cx="442" cy="412" fill="hsl(228, 75%, 70%)" opacity="0.25"></circle><circle r="11.5" cx="782" cy="93" fill="hsl(290, 75%, 70%)" opacity="0.63"></circle><circle r="13" cx="708" cy="332" fill="hsl(288, 75%, 70%)" opacity="0.85"></circle><circle r="13" cx="157" cy="251" fill="hsl(327, 75%, 70%)" opacity="0.66"></circle><circle r="9" cx="294" cy="37" fill="hsl(267, 75%, 70%)" opacity="0.31"></circle><circle r="12.5" cx="449" cy="79" fill="hsl(297, 75%, 70%)" opacity="0.17"></circle><circle r="14" cx="682" cy="371" fill="hsl(305, 75%, 70%)" opacity="0.15"></circle><circle r="12.5" cx="443" cy="147" fill="hsl(263, 75%, 70%)" opacity="0.16"></circle><circle r="14" cx="772" cy="355" fill="hsl(220, 75%, 70%)" opacity="0.96"></circle><circle r="13" cx="364" cy="164" fill="hsl(286, 75%, 70%)" opacity="0.98"></circle><circle r="11.5" cx="20" cy="131" fill="hsl(304, 75%, 70%)" opacity="0.72"></circle><circle r="12" cx="57" cy="530" fill="hsl(291, 75%, 70%)" opacity="0.62"></circle><circle r="14.5" cx="679" cy="294" fill="hsl(305, 75%, 70%)" opacity="0.97"></circle><circle r="14" cx="665" cy="97" fill="hsl(349, 75%, 70%)" opacity="0.27"></circle><circle r="14" cx="278" cy="299" fill="hsl(333, 75%, 70%)" opacity="0.84"></circle><circle r="14.5" cx="339" cy="122" fill="hsl(302, 75%, 70%)" opacity="0.79"></circle><circle r="8" cx="113" cy="16" fill="hsl(217, 75%, 70%)" opacity="0.27"></circle><circle r="12" cx="555" cy="224" fill="hsl(271, 75%, 70%)" opacity="0.65"></circle><circle r="13" cx="139" cy="597" fill="hsl(323, 75%, 70%)" opacity="0.50"></circle><circle r="14.5" cx="324" cy="465" fill="hsl(314, 75%, 70%)" opacity="0.54"></circle><circle r="15.5" cx="721" cy="466" fill="hsl(277, 75%, 70%)" opacity="0.92"></circle><circle r="10" cx="53" cy="489" fill="hsl(291, 75%, 70%)" opacity="0.64"></circle><circle r="10" cx="453" cy="264" fill="hsl(225, 75%, 70%)" opacity="0.89"></circle><circle r="11" cx="417" cy="281" fill="hsl(239, 75%, 70%)" opacity="0.72"></circle><circle r="11.5" cx="71" cy="88" fill="hsl(285, 75%, 70%)" opacity="0.90"></circle><circle r="9.5" cx="128" cy="47" fill="hsl(236, 75%, 70%)" opacity="0.47"></circle><circle r="14" cx="596" cy="774" fill="hsl(299, 75%, 70%)" opacity="0.13"></circle><circle r="14" cx="665" cy="736" fill="hsl(311, 75%, 70%)" opacity="0.31"></circle><circle r="14" cx="531" cy="360" fill="hsl(251, 75%, 70%)" opacity="0.85"></circle><circle r="7.5" cx="205" cy="14" fill="hsl(226, 75%, 70%)" opacity="0.84"></circle><circle r="12.5" cx="431" cy="41" fill="hsl(307, 75%, 70%)" opacity="0.89"></circle><circle r="10.5" cx="469" cy="301" fill="hsl(224, 75%, 70%)" opacity="0.39"></circle><circle r="17.5" cx="275" cy="738" fill="hsl(338, 75%, 70%)" opacity="0.31"></circle><circle r="14.5" cx="174" cy="580" fill="hsl(332, 75%, 70%)" opacity="0.93"></circle><circle r="11.5" cx="538" cy="480" fill="hsl(261, 75%, 70%)" opacity="0.79"></circle><circle r="12.5" cx="119" cy="497" fill="hsl(312, 75%, 70%)" opacity="0.80"></circle><circle r="14.5" cx="241" cy="456" fill="hsl(343, 75%, 70%)" opacity="0.51"></circle><circle r="11" cx="354" cy="65" fill="hsl(299, 75%, 70%)" opacity="0.45"></circle><circle r="12" cx="610" cy="380" fill="hsl(306, 75%, 70%)" opacity="0.29"></circle><circle r="11.5" cx="776" cy="649" fill="hsl(205, 75%, 70%)" opacity="0.84"></circle><circle r="10" cx="321" cy="56" fill="hsl(286, 75%, 70%)" opacity="0.95"></circle><circle r="14" cx="676" cy="496" fill="hsl(305, 75%, 70%)" opacity="0.30"></circle><circle r="12" cx="516" cy="628" fill="hsl(242, 75%, 70%)" opacity="0.18"></circle><circle r="13.5" cx="299" cy="781" fill="hsl(328, 75%, 70%)" opacity="0.67"></circle><circle r="12.5" cx="504" cy="26" fill="hsl(303, 75%, 70%)" opacity="0.75"></circle><circle r="16" cx="614" cy="429" fill="hsl(311, 75%, 70%)" opacity="0.36"></circle><circle r="10" cx="208" cy="49" fill="hsl(239, 75%, 70%)" opacity="0.40"></circle><circle r="13" cx="603" cy="72" fill="hsl(330, 75%, 70%)" opacity="0.94"></circle><circle r="16.5" cx="726" cy="28" fill="hsl(312, 75%, 70%)" opacity="0.63"></circle><circle r="14.5" cx="213" cy="132" fill="hsl(305, 75%, 70%)" opacity="0.28"></circle><circle r="12.5" cx="464" cy="689" fill="hsl(224, 75%, 70%)" opacity="0.45"></circle><circle r="13.5" cx="318" cy="291" fill="hsl(314, 75%, 70%)" opacity="0.43"></circle><circle r="10" cx="41" cy="457" fill="hsl(288, 75%, 70%)" opacity="0.67"></circle><circle r="12" cx="370" cy="365" fill="hsl(277, 75%, 70%)" opacity="0.80"></circle><circle r="12.5" cx="346" cy="682" fill="hsl(296, 75%, 70%)" opacity="0.54"></circle><circle r="11.5" cx="561" cy="36" fill="hsl(304, 75%, 70%)" opacity="0.98"></circle><circle r="17.5" cx="223" cy="730" fill="hsl(343, 75%, 70%)" opacity="0.88"></circle><circle r="10.5" cx="21" cy="165" fill="hsl(295, 75%, 70%)" opacity="0.54"></circle><circle r="11" cx="28" cy="57" fill="hsl(262, 75%, 70%)" opacity="0.25"></circle><circle r="11.5" cx="661" cy="419" fill="hsl(315, 75%, 70%)" opacity="0.49"></circle><circle r="13" cx="491" cy="500" fill="hsl(229, 75%, 70%)" opacity="0.97"></circle><circle r="16" cx="616" cy="598" fill="hsl(311, 75%, 70%)" opacity="0.94"></circle><circle r="15" cx="21" cy="613" fill="hsl(281, 75%, 70%)" opacity="0.63"></circle><circle r="14" cx="210" cy="600" fill="hsl(342, 75%, 70%)" opacity="0.18"></circle><circle r="14.5" cx="215" cy="219" fill="hsl(343, 75%, 70%)" opacity="0.68"></circle><circle r="12" cx="490" cy="396" fill="hsl(229, 75%, 70%)" opacity="0.35"></circle><circle r="13" cx="677" cy="179" fill="hsl(316, 75%, 70%)" opacity="0.63"></circle><circle r="12" cx="552" cy="780" fill="hsl(271, 75%, 70%)" opacity="0.98"></circle><circle r="9.5" cx="64" cy="19" fill="hsl(219, 75%, 70%)" opacity="0.84"></circle><circle r="14" cx="169" cy="394" fill="hsl(332, 75%, 70%)" opacity="0.52"></circle><circle r="8.5" cx="13" cy="457" fill="hsl(281, 75%, 70%)" opacity="0.94"></circle><circle r="15.5" cx="281" cy="462" fill="hsl(333, 75%, 70%)" opacity="0.42"></circle><circle r="10" cx="20" cy="20" fill="hsl(221, 75%, 70%)" opacity="0.43"></circle><circle r="11" cx="493" cy="76" fill="hsl(295, 75%, 70%)" opacity="0.51"></circle><circle r="12" cx="440" cy="592" fill="hsl(228, 75%, 70%)" opacity="0.18"></circle><circle r="11.5" cx="485" cy="149" fill="hsl(261, 75%, 70%)" opacity="0.17"></circle><circle r="11" cx="555" cy="146" fill="hsl(298, 75%, 70%)" opacity="0.50"></circle><circle r="11.5" cx="421" cy="694" fill="hsl(239, 75%, 70%)" opacity="0.19"></circle><circle r="11" cx="354" cy="309" fill="hsl(287, 75%, 70%)" opacity="0.39"></circle><circle r="11" cx="478" cy="739" fill="hsl(225, 75%, 70%)" opacity="0.35"></circle><circle r="10.5" cx="445" cy="516" fill="hsl(228, 75%, 70%)" opacity="0.38"></circle><circle r="10.5" cx="443" cy="476" fill="hsl(228, 75%, 70%)" opacity="0.64"></circle><circle r="13" cx="646" cy="343" fill="hsl(316, 75%, 70%)" opacity="0.50"></circle><circle r="13" cx="381" cy="206" fill="hsl(267, 75%, 70%)" opacity="0.54"></circle><circle r="16" cx="305" cy="700" fill="hsl(321, 75%, 70%)" opacity="0.91"></circle><circle r="13" cx="571" cy="108" fill="hsl(316, 75%, 70%)" opacity="0.22"></circle><circle r="13.5" cx="204" cy="641" fill="hsl(342, 75%, 70%)" opacity="0.46"></circle><circle r="12" cx="29" cy="270" fill="hsl(284, 75%, 70%)" opacity="0.23"></circle><circle r="14.5" cx="333" cy="346" fill="hsl(305, 75%, 70%)" opacity="0.34"></circle><circle r="14" cx="278" cy="567" fill="hsl(333, 75%, 70%)" opacity="0.38"></circle><circle r="15.5" cx="163" cy="641" fill="hsl(332, 75%, 70%)" opacity="0.16"></circle><circle r="12" cx="743" cy="256" fill="hsl(250, 75%, 70%)" opacity="0.93"></circle><circle r="10.5" cx="84" cy="491" fill="hsl(299, 75%, 70%)" opacity="0.55"></circle><circle r="11" cx="479" cy="191" fill="hsl(225, 75%, 70%)" opacity="0.17"></circle><circle r="10" cx="461" cy="551" fill="hsl(225, 75%, 70%)" opacity="0.55"></circle><circle r="13" cx="660" cy="214" fill="hsl(315, 75%, 70%)" opacity="0.67"></circle><circle r="14" cx="406" cy="544" fill="hsl(248, 75%, 70%)" opacity="0.92"></circle><circle r="10" cx="168" cy="57" fill="hsl(243, 75%, 70%)" opacity="0.25"></circle><circle r="13" cx="355" cy="21" fill="hsl(291, 75%, 70%)" opacity="0.28"></circle><circle r="11.5" cx="561" cy="181" fill="hsl(278, 75%, 70%)" opacity="0.69"></circle><circle r="13" cx="548" cy="688" fill="hsl(261, 75%, 70%)" opacity="0.95"></circle><circle r="20.5" cx="179" cy="765" fill="hsl(336, 75%, 70%)" opacity="0.27"></circle><circle r="15" cx="161" cy="342" fill="hsl(327, 75%, 70%)" opacity="0.37"></circle><circle r="12.5" cx="514" cy="308" fill="hsl(242, 75%, 70%)" opacity="0.44"></circle><circle r="10.5" cx="158" cy="198" fill="hsl(327, 75%, 70%)" opacity="0.39"></circle><circle r="13" cx="410" cy="445" fill="hsl(248, 75%, 70%)" opacity="0.60"></circle><circle r="13" cx="773" cy="469" fill="hsl(220, 75%, 70%)" opacity="0.18"></circle><circle r="12.5" cx="395" cy="400" fill="hsl(257, 75%, 70%)" opacity="0.62"></circle><circle r="10.5" cx="759" cy="205" fill="hsl(235, 75%, 70%)" opacity="0.78"></circle><circle r="11.5" cx="517" cy="213" fill="hsl(242, 75%, 70%)" opacity="0.11"></circle><circle r="12.5" cx="390" cy="734" fill="hsl(257, 75%, 70%)" opacity="0.64"></circle><circle r="15" cx="163" cy="298" fill="hsl(332, 75%, 70%)" opacity="0.75"></circle><circle r="12" cx="97" cy="158" fill="hsl(304, 75%, 70%)" opacity="0.25"></circle><circle r="12.5" cx="398" cy="596" fill="hsl(257, 75%, 70%)" opacity="0.94"></circle><circle r="10.5" cx="457" cy="780" fill="hsl(225, 75%, 70%)" opacity="0.73"></circle><circle r="10.5" cx="244" cy="74" fill="hsl(264, 75%, 70%)" opacity="0.15"></circle><circle r="12" cx="180" cy="222" fill="hsl(336, 75%, 70%)" opacity="0.81"></circle><circle r="11.5" cx="507" cy="670" fill="hsl(235, 75%, 70%)" opacity="0.45"></circle><circle r="14" cx="237" cy="656" fill="hsl(344, 75%, 70%)" opacity="0.52"></circle><circle r="17.5" cx="91" cy="717" fill="hsl(303, 75%, 70%)" opacity="1.00"></circle><circle r="14" cx="251" cy="533" fill="hsl(341, 75%, 70%)" opacity="0.60"></circle><circle r="13.5" cx="116" cy="630" fill="hsl(312, 75%, 70%)" opacity="0.41"></circle><circle r="9" cx="457" cy="14" fill="hsl(306, 75%, 70%)" opacity="0.72"></circle><circle r="13" cx="709" cy="218" fill="hsl(288, 75%, 70%)" opacity="0.46"></circle><circle r="11.5" cx="372" cy="94" fill="hsl(300, 75%, 70%)" opacity="0.46"></circle><circle r="15" cx="192" cy="171" fill="hsl(328, 75%, 70%)" opacity="0.45"></circle><circle r="16" cx="578" cy="561" fill="hsl(290, 75%, 70%)" opacity="0.97"></circle><circle r="15" cx="597" cy="142" fill="hsl(323, 75%, 70%)" opacity="0.69"></circle><circle r="16" cx="286" cy="506" fill="hsl(333, 75%, 70%)" opacity="0.63"></circle><circle r="11.5" cx="128" cy="279" fill="hsl(317, 75%, 70%)" opacity="0.12"></circle><circle r="17" cx="699" cy="74" fill="hsl(338, 75%, 70%)" opacity="0.64"></circle><circle r="10.5" cx="24" cy="386" fill="hsl(281, 75%, 70%)" opacity="0.86"></circle><circle r="12.5" cx="490" cy="586" fill="hsl(229, 75%, 70%)" opacity="0.20"></circle><circle r="15" cx="720" cy="518" fill="hsl(277, 75%, 70%)" opacity="0.70"></circle><circle r="15" cx="254" cy="376" fill="hsl(341, 75%, 70%)" opacity="0.76"></circle><circle r="13" cx="414" cy="643" fill="hsl(239, 75%, 70%)" opacity="0.21"></circle></svg>